REM DIRINDEX 1\2,1\3,1\4,1\5,1\6
REM DIRNAME folder01,folder02,folder03,folder04,folder05,folder06
TITLE ""
FILE "Disc2Track63.mp3" MP3
  TRACK 01 AUDIO
    TITLE "3:cjc030_03939"
    INDEX 01 00:00:00
  TRACK 02 AUDIO
    TITLE "0:"
    INDEX 01 00:00:72
  TRACK 03 AUDIO
    TITLE "4:cjc030_03940"
    INDEX 01 00:01:07
  TRACK 04 AUDIO
    TITLE "0:"
    INDEX 01 00:02:57
  TRACK 05 AUDIO
    TITLE "5:cjc030_03941"
    INDEX 01 00:02:65
  TRACK 06 AUDIO
    TITLE "0:"
    INDEX 01 00:03:66
  TRACK 07 AUDIO
    TITLE "6:cjc030_03942"
    INDEX 01 00:04:03
  TRACK 08 AUDIO
    TITLE "0:"
    INDEX 01 00:07:17
  TRACK 09 AUDIO
    TITLE "3:cjc030_03943"
    INDEX 01 00:07:64
  TRACK 10 AUDIO
    TITLE "0:"
    INDEX 01 00:09:00
  TRACK 11 AUDIO
    TITLE "4:cjc030_03944"
    INDEX 01 00:09:10
  TRACK 12 AUDIO
    TITLE "0:"
    INDEX 01 00:10:19
  TRACK 13 AUDIO
    TITLE "5:cjc030_03945"
    INDEX 01 00:10:25
  TRACK 14 AUDIO
    TITLE "0:"
    INDEX 01 00:11:40
  TRACK 15 AUDIO
    TITLE "3:cjc030_03946"
    INDEX 01 00:12:18
  TRACK 16 AUDIO
    TITLE "0:"
    INDEX 01 00:13:30
  TRACK 17 AUDIO
    TITLE "4:cjc030_03947"
    INDEX 01 00:13:39
  TRACK 18 AUDIO
    TITLE "0:"
    INDEX 01 00:14:51
  TRACK 19 AUDIO
    TITLE "5:cjc030_03948"
    INDEX 01 00:14:58
  TRACK 20 AUDIO
    TITLE "0:"
    INDEX 01 00:15:72
  TRACK 21 AUDIO
    TITLE "6:cjc030_03949"
    INDEX 01 00:16:10
  TRACK 22 AUDIO
    TITLE "0:"
    INDEX 01 00:22:13
  TRACK 23 AUDIO
    TITLE "3:cjc030_03950"
    INDEX 01 00:22:62
  TRACK 24 AUDIO
    TITLE "0:"
    INDEX 01 00:23:59
  TRACK 25 AUDIO
    TITLE "4:cjc030_03951"
    INDEX 01 00:23:69
  TRACK 26 AUDIO
    TITLE "0:"
    INDEX 01 00:24:67
  TRACK 27 AUDIO
    TITLE "5:cjc030_03952"
    INDEX 01 00:25:01
  TRACK 28 AUDIO
    TITLE "0:"
    INDEX 01 00:25:74
  TRACK 29 AUDIO
    TITLE "6:cjc030_03953"
    INDEX 01 00:26:11
  TRACK 30 AUDIO
    TITLE "0:"
    INDEX 01 00:30:24
  TRACK 31 AUDIO
    TITLE "3:cjc030_03954"
    INDEX 01 00:30:71
  TRACK 32 AUDIO
    TITLE "0:"
    INDEX 01 00:32:27
  TRACK 33 AUDIO
    TITLE "4:cjc030_03955"
    INDEX 01 00:32:35
  TRACK 34 AUDIO
    TITLE "0:"
    INDEX 01 00:33:26
  TRACK 35 AUDIO
    TITLE "5:cjc030_03956"
    INDEX 01 00:33:34
  TRACK 36 AUDIO
    TITLE "0:"
    INDEX 01 00:34:65
  TRACK 37 AUDIO
    TITLE "6:cjc030_03957"
    INDEX 01 00:35:02
  TRACK 38 AUDIO
    TITLE "0:"
    INDEX 01 00:39:60
  TRACK 39 AUDIO
    TITLE "3:cjc030_03958"
    INDEX 01 00:40:36
  TRACK 40 AUDIO
    TITLE "0:"
    INDEX 01 00:41:57
  TRACK 41 AUDIO
    TITLE "4:cjc030_03959"
    INDEX 01 00:41:67
  TRACK 42 AUDIO
    TITLE "0:"
    INDEX 01 00:42:70
  TRACK 43 AUDIO
    TITLE "5:cjc030_03960"
    INDEX 01 00:43:03
  TRACK 44 AUDIO
    TITLE "0:"
    INDEX 01 00:44:26
  TRACK 45 AUDIO
    TITLE "6:cjc030_03961"
    INDEX 01 00:44:38
  TRACK 46 AUDIO
    TITLE "0:"
    INDEX 01 00:49:25
  TRACK 47 AUDIO
    TITLE "3:cjc030_03962"
    INDEX 01 00:49:74
  TRACK 48 AUDIO
    TITLE "0:"
    INDEX 01 00:51:24
  TRACK 49 AUDIO
    TITLE "4:cjc030_03963"
    INDEX 01 00:51:36
  TRACK 50 AUDIO
    TITLE "0:"
    INDEX 01 00:52:57
  TRACK 51 AUDIO
    TITLE "5:cjc030_03964"
    INDEX 01 00:52:65
  TRACK 52 AUDIO
    TITLE "0:"
    INDEX 01 00:54:19
  TRACK 53 AUDIO
    TITLE "6:cjc030_03965"
    INDEX 01 00:54:29
  TRACK 54 AUDIO
    TITLE "0:"
    INDEX 01 00:56:47
  TRACK 55 AUDIO
    TITLE "3:cjc030_03966"
    INDEX 01 00:57:21
  TRACK 56 AUDIO
    TITLE "0:"
    INDEX 01 00:58:26
  TRACK 57 AUDIO
    TITLE "4:cjc030_03967"
    INDEX 01 00:58:36
  TRACK 58 AUDIO
    TITLE "0:"
    INDEX 01 01:00:53
  TRACK 59 AUDIO
    TITLE "5:cjc030_03968"
    INDEX 01 01:00:62
  TRACK 60 AUDIO
    TITLE "0:"
    INDEX 01 01:01:68
  TRACK 61 AUDIO
    TITLE "6:cjc030_03969"
    INDEX 01 01:02:05
  TRACK 62 AUDIO
    TITLE "0:"
    INDEX 01 01:05:38
  TRACK 63 AUDIO
    TITLE "3:cjc030_03970"
    INDEX 01 01:06:10
  TRACK 64 AUDIO
    TITLE "0:"
    INDEX 01 01:07:21
  TRACK 65 AUDIO
    TITLE "4:cjc030_03971"
    INDEX 01 01:07:31
  TRACK 66 AUDIO
    TITLE "0:"
    INDEX 01 01:09:01
  TRACK 67 AUDIO
    TITLE "5:cjc030_03972"
    INDEX 01 01:09:12
  TRACK 68 AUDIO
    TITLE "0:"
    INDEX 01 01:10:24
  TRACK 69 AUDIO
    TITLE "6:cjc030_03973"
    INDEX 01 01:10:35
  TRACK 70 AUDIO
    TITLE "0:"
    INDEX 01 01:12:24
  TRACK 71 AUDIO
    TITLE "3:cjc030_03974"
    INDEX 01 01:12:73
  TRACK 72 AUDIO
    TITLE "0:"
    INDEX 01 01:14:08
  TRACK 73 AUDIO
    TITLE "4:cjc030_03975"
    INDEX 01 01:14:17
  TRACK 74 AUDIO
    TITLE "0:"
    INDEX 01 01:15:42
  TRACK 75 AUDIO
    TITLE "5:cjc030_03976"
    INDEX 01 01:15:48
  TRACK 76 AUDIO
    TITLE "0:"
    INDEX 01 01:16:61
  TRACK 77 AUDIO
    TITLE "3:cjc030_03977"
    INDEX 01 01:17:37
  TRACK 78 AUDIO
    TITLE "0:"
    INDEX 01 01:18:66
  TRACK 79 AUDIO
    TITLE "4:cjc030_03978"
    INDEX 01 01:18:74
  TRACK 80 AUDIO
    TITLE "0:"
    INDEX 01 01:19:74
  TRACK 81 AUDIO
    TITLE "5:cjc030_03979"
    INDEX 01 01:20:08
  TRACK 82 AUDIO
    TITLE "0:"
    INDEX 01 01:21:35
  TRACK 83 AUDIO
    TITLE "6:cjc030_03980"
    INDEX 01 01:21:49
  TRACK 84 AUDIO
    TITLE "0:"
    INDEX 01 01:26:40
  TRACK 85 AUDIO
    TITLE "3:cjc030_03981"
    INDEX 01 01:27:14
  TRACK 86 AUDIO
    TITLE "0:"
    INDEX 01 01:28:35
  TRACK 87 AUDIO
    TITLE "4:cjc030_03982"
    INDEX 01 01:28:43
  TRACK 88 AUDIO
    TITLE "0:"
    INDEX 01 01:29:60
  TRACK 89 AUDIO
    TITLE "5:cjc030_03983"
    INDEX 01 01:29:70
  TRACK 90 AUDIO
    TITLE "0:"
    INDEX 01 01:31:16
  TRACK 91 AUDIO
    TITLE "3:cjc030_03984"
    INDEX 01 01:31:67
  TRACK 92 AUDIO
    TITLE "0:"
    INDEX 01 01:33:11
  TRACK 93 AUDIO
    TITLE "4:cjc030_03985"
    INDEX 01 01:33:19
  TRACK 94 AUDIO
    TITLE "0:"
    INDEX 01 01:34:44
  TRACK 95 AUDIO
    TITLE "5:cjc030_03986"
    INDEX 01 01:34:50
  TRACK 96 AUDIO
    TITLE "0:"
    INDEX 01 01:35:69
  TRACK 97 AUDIO
    TITLE "6:cjc030_03987"
    INDEX 01 01:36:07
  TRACK 98 AUDIO
    TITLE "0:"
    INDEX 01 01:40:44
  TRACK 99 AUDIO
    TITLE "3:cjc030_03988"
    INDEX 01 01:41:18
  TRACK 100 AUDIO
    TITLE "0:"
    INDEX 01 01:42:39
  TRACK 101 AUDIO
    TITLE "4:cjc030_03989"
    INDEX 01 01:42:49
  TRACK 102 AUDIO
    TITLE "0:"
    INDEX 01 01:43:45
  TRACK 103 AUDIO
    TITLE "5:cjc030_03990"
    INDEX 01 01:43:54
  TRACK 104 AUDIO
    TITLE "0:"
    INDEX 01 01:45:00
  TRACK 105 AUDIO
    TITLE "3:cjc030_03991"
    INDEX 01 01:45:51
  TRACK 106 AUDIO
    TITLE "0:"
    INDEX 01 01:46:68
  TRACK 107 AUDIO
    TITLE "4:cjc030_03992"
    INDEX 01 01:47:03
  TRACK 108 AUDIO
    TITLE "0:"
    INDEX 01 01:48:12
  TRACK 109 AUDIO
    TITLE "5:cjc030_03993"
    INDEX 01 01:48:22
  TRACK 110 AUDIO
    TITLE "0:"
    INDEX 01 01:49:41
  TRACK 111 AUDIO
    TITLE "3:cjc030_03994"
    INDEX 01 01:50:21
  TRACK 112 AUDIO
    TITLE "0:"
    INDEX 01 01:51:32
  TRACK 113 AUDIO
    TITLE "4:cjc030_03995"
    INDEX 01 01:51:40
  TRACK 114 AUDIO
    TITLE "0:"
    INDEX 01 01:52:73
  TRACK 115 AUDIO
    TITLE "5:cjc030_03996"
    INDEX 01 01:53:08
  TRACK 116 AUDIO
    TITLE "0:"
    INDEX 01 01:54:17
  TRACK 117 AUDIO
    TITLE "6:cjc030_03997"
    INDEX 01 01:54:31
  TRACK 118 AUDIO
    TITLE "0:"
    INDEX 01 02:00:18
  TRACK 119 AUDIO
    TITLE "3:cjc030_03998"
    INDEX 01 02:00:67
  TRACK 120 AUDIO
    TITLE "0:"
    INDEX 01 02:02:05
  TRACK 121 AUDIO
    TITLE "4:cjc030_03999"
    INDEX 01 02:02:17
  TRACK 122 AUDIO
    TITLE "0:"
    INDEX 01 02:03:14
  TRACK 123 AUDIO
    TITLE "5:cjc030_04000"
    INDEX 01 02:03:24
  TRACK 124 AUDIO
    TITLE "0:"
    INDEX 01 02:04:41
